# xmcd
#
# Track frame offsets: 
#        150
#        14969
#        27548
#        43882
#        59109
#        76045
#        97132
#        110972
#        127438
#        143836
#        159460
#        176792
#        193889
#        207403
#        224052
#        238284
#        253878
#        266413
#        284732
#
# Disc length: 4037 seconds
#
# Revision: 0
# Processed by: cddbd v1.5.2PL0 Copyright (c) Steve Scherf et al.
# Submitted via: ExactAudioCopy v1.0b3
#
DISCID=500fc313
DTITLE=Bill Hearne - A Good Ride
DYEAR=2009
DGENRE=Country
TTITLE0=Border Radio
TTITLE1=Did She Mention My Name
TTITLE2=Endless Sky
TTITLE3=I'm a Rambler
TTITLE4=My Own Heart's Delight
TTITLE5=You've Got a Lover
TTITLE6=Object of My Affection
TTITLE7=The Railroad is Calling My Name
TTITLE8=Long Thin Dawn
TTITLE9=Evangelina
TTITLE10=Sweet Wyoming Home
TTITLE11=Roses Won't Stop Her
TTITLE12=Baton Rouge
TTITLE13=Hopes Up High
TTITLE14=That Old Cowboy
TTITLE15=Honky Tonk Stardust Cowboy
TTITLE16=I Want to Thank You Baby
TTITLE17=I Remember Lovin' You
TTITLE18=Good Ride
EXTD=
EXTT0=
EXTT1=
EXTT2=
EXTT3=
EXTT4=
EXTT5=
EXTT6=
EXTT7=
EXTT8=
EXTT9=
EXTT10=
EXTT11=
EXTT12=
EXTT13=
EXTT14=
EXTT15=
EXTT16=
EXTT17=
EXTT18=
PLAYORDER=
